<svg width="8.166687" height="16.333496" viewBox="0 0 8.16669 16.3335" fill="none" xmlns="http://www.w3.org/2000/svg" xmlns:xlink="http://www.w3.org/1999/xlink">
	<desc>
			Created with Pixso.
	</desc>
	<defs/>
	<path id="Vector" d="M7 16.33C7.27 16.33 7.54 16.23 7.74 16.06C7.86 15.96 7.96 15.84 8.03 15.71C8.1 15.57 8.14 15.42 8.16 15.27C8.17 15.12 8.15 14.96 8.11 14.82C8.06 14.67 7.99 14.53 7.89 14.42L2.71 8.18L7.71 1.93C7.8 1.81 7.88 1.67 7.92 1.52C7.96 1.38 7.98 1.22 7.96 1.07C7.94 0.92 7.9 0.77 7.83 0.63C7.75 0.5 7.65 0.38 7.53 0.29C7.42 0.18 7.28 0.1 7.12 0.05C6.97 0 6.81 -0.02 6.65 0C6.49 0.02 6.34 0.07 6.2 0.15C6.06 0.22 5.94 0.33 5.85 0.46L0.26 7.44C0.09 7.65 0 7.91 0 8.18C0 8.45 0.09 8.71 0.26 8.92L6.04 15.91C6.16 16.05 6.31 16.16 6.47 16.23C6.64 16.31 6.82 16.34 7 16.33Z" fill="#FFFFFF" fill-opacity="1.000000" fill-rule="nonzero"/>
</svg>
