<svg width="8.166626" height="16.333496" viewBox="0 0 8.16663 16.3335" fill="none" xmlns="http://www.w3.org/2000/svg" xmlns:xlink="http://www.w3.org/1999/xlink">
	<desc>
			Created with Pixso.
	</desc>
	<defs/>
	<path id="Vector" d="M1.15 0C0.88 0 0.62 0.09 0.41 0.27C0.3 0.36 0.2 0.48 0.13 0.62C0.06 0.75 0.01 0.9 0 1.05C-0.01 1.21 0 1.36 0.05 1.51C0.09 1.65 0.17 1.79 0.26 1.91L5.45 8.15L0.45 14.4C0.35 14.52 0.28 14.65 0.24 14.8C0.19 14.95 0.18 15.1 0.2 15.25C0.21 15.41 0.26 15.55 0.33 15.69C0.4 15.82 0.5 15.94 0.62 16.04C0.74 16.14 0.88 16.22 1.03 16.27C1.19 16.32 1.35 16.34 1.5 16.32C1.66 16.31 1.82 16.26 1.96 16.18C2.09 16.1 2.21 15.99 2.31 15.86L7.9 8.88C8.07 8.67 8.16 8.41 8.16 8.14C8.16 7.87 8.07 7.61 7.9 7.4L2.11 0.42C2 0.28 1.85 0.16 1.68 0.09C1.52 0.02 1.34 -0.01 1.15 0Z" fill="#FFFFFF" fill-opacity="1.000000" fill-rule="nonzero"/>
</svg>
