<svg width="11.000011" height="13.979736" viewBox="0 0 11 13.9797" fill="none" xmlns="http://www.w3.org/2000/svg" xmlns:xlink="http://www.w3.org/1999/xlink">
	<desc>
			Created with Pixso.
	</desc>
	<defs/>
	<path id="Vector" d="M10.53 6.32C10.22 5.64 9.78 5.03 9.23 4.52L8.78 4.1C8.76 4.09 8.74 4.08 8.72 4.08C8.7 4.07 8.68 4.07 8.66 4.08C8.64 4.08 8.62 4.09 8.61 4.11C8.59 4.12 8.58 4.14 8.57 4.16L8.37 4.74C8.25 5.1 8.01 5.48 7.68 5.85C7.66 5.87 7.64 5.87 7.62 5.88C7.6 5.88 7.57 5.87 7.55 5.85C7.53 5.83 7.52 5.81 7.52 5.78C7.58 4.84 7.3 3.78 6.68 2.62C6.17 1.66 5.46 0.91 4.58 0.39L3.93 0.01C3.85 -0.04 3.74 0.03 3.75 0.13L3.78 0.88C3.8 1.39 3.75 1.84 3.6 2.22C3.43 2.68 3.19 3.11 2.87 3.49C2.65 3.76 2.4 4 2.13 4.21C1.47 4.72 0.93 5.37 0.56 6.11C0.19 6.86 0 7.69 0 8.52C0 9.26 0.14 9.97 0.43 10.65C0.71 11.3 1.11 11.88 1.61 12.38C2.11 12.88 2.7 13.27 3.36 13.55C4.03 13.83 4.75 13.97 5.5 13.97C6.24 13.97 6.96 13.83 7.63 13.55C8.29 13.28 8.88 12.88 9.38 12.38C9.89 11.88 10.29 11.3 10.56 10.65C10.85 9.98 11 9.25 11 8.52C11 7.76 10.84 7.02 10.53 6.32Z" fill="#EF4444" fill-opacity="1.000000" fill-rule="nonzero"/>
</svg>
