<svg width="12.000061" height="12.326172" viewBox="0 0 12.0001 12.3262" fill="none" xmlns="http://www.w3.org/2000/svg" xmlns:xlink="http://www.w3.org/1999/xlink">
	<desc>
			Created with Pixso.
	</desc>
	<defs/>
	<path id="Vector" d="M12 5.54L12 11.32C11.99 11.5 11.95 11.68 11.85 11.84C11.76 11.99 11.63 12.12 11.47 12.21C11.32 12.28 11.16 12.32 11 12.32L7.99 12.32C7.86 12.32 7.73 12.27 7.64 12.17C7.55 12.08 7.49 11.95 7.49 11.82L7.49 8.82C7.49 8.69 7.44 8.56 7.35 8.47C7.25 8.37 7.13 8.32 6.99 8.32L4.99 8.32C4.86 8.32 4.73 8.37 4.64 8.47C4.55 8.56 4.49 8.69 4.49 8.82L4.49 11.82C4.49 11.95 4.44 12.08 4.35 12.17C4.25 12.27 4.13 12.32 3.99 12.32L1 12.32C0.85 12.32 0.71 12.29 0.58 12.23C0.45 12.18 0.34 12.09 0.25 11.98C0.08 11.79 -0.01 11.55 6.1e-5 11.3L6.1e-5 5.54C0 5.4 0.02 5.27 0.08 5.14C0.14 5.01 0.22 4.9 0.32 4.8L5.32 0.26C5.51 0.09 5.75 0 5.99 0C6.24 0 6.48 0.09 6.67 0.26L11.67 4.8C11.77 4.9 11.85 5.01 11.91 5.14C11.97 5.27 11.99 5.4 12 5.54Z" fill="#1D4ED8" fill-opacity="1.000000" fill-rule="nonzero"/>
</svg>
