<svg width="12.799988" height="12.589355" viewBox="0 0 12.8 12.5894" fill="none" xmlns="http://www.w3.org/2000/svg" xmlns:xlink="http://www.w3.org/1999/xlink">
	<desc>
			Created with Pixso.
	</desc>
	<defs/>
	<path id="Vector" d="M11.2 2.98L1.2 2.98L1.2 2.58L10 1.88L10 2.58L11.2 2.58L11.2 1.38C11.2 0.5 10.48 -0.11 9.61 0.01L1.58 1.16C0.71 1.28 0 2.1 0 2.98L0 10.98C0 11.41 0.16 11.82 0.46 12.12C0.76 12.42 1.17 12.58 1.59 12.58L11.2 12.58C11.62 12.58 12.03 12.42 12.33 12.12C12.63 11.82 12.8 11.41 12.8 10.98L12.8 4.58C12.8 4.16 12.63 3.75 12.33 3.45C12.03 3.15 11.62 2.98 11.2 2.98ZM10 8.59C9.84 8.59 9.68 8.56 9.54 8.5C9.39 8.44 9.26 8.35 9.15 8.24C9.03 8.13 8.95 7.99 8.89 7.85C8.83 7.7 8.79 7.55 8.79 7.39C8.8 7.23 8.83 7.07 8.89 6.93C8.95 6.78 9.04 6.65 9.15 6.54C9.26 6.43 9.39 6.34 9.54 6.28C9.68 6.22 9.84 6.19 10 6.19C10.31 6.19 10.62 6.32 10.84 6.54C11.07 6.77 11.2 7.07 11.2 7.39C11.2 7.71 11.07 8.01 10.84 8.24C10.62 8.46 10.31 8.59 10 8.59Z" fill="#047857" fill-opacity="1.000000" fill-rule="nonzero"/>
</svg>
