<svg width="7.000000" height="14.000000" viewBox="0 0 7 14" fill="none" xmlns="http://www.w3.org/2000/svg" xmlns:xlink="http://www.w3.org/1999/xlink">
	<desc>
			Created with Pixso.
	</desc>
	<defs/>
	<path id="Vector" d="M0.99 0C0.76 0 0.53 0.08 0.35 0.23C0.25 0.31 0.17 0.41 0.11 0.53C0.05 0.65 0.01 0.77 0 0.9C-0.01 1.03 0 1.17 0.04 1.29C0.08 1.42 0.14 1.53 0.22 1.63L4.67 6.98L0.38 12.34C0.3 12.44 0.24 12.56 0.2 12.68C0.17 12.81 0.15 12.94 0.17 13.07C0.18 13.2 0.22 13.33 0.28 13.45C0.35 13.56 0.43 13.66 0.53 13.75C0.63 13.84 0.75 13.91 0.89 13.95C1.02 13.99 1.15 14 1.29 13.99C1.42 13.98 1.56 13.93 1.68 13.87C1.79 13.8 1.9 13.71 1.98 13.6L6.77 7.61C6.92 7.43 7 7.21 7 6.98C7 6.75 6.92 6.52 6.77 6.34L1.81 0.36C1.71 0.24 1.59 0.14 1.44 0.08C1.3 0.02 1.14 -0.01 0.99 0Z" fill="#FFFFFF" fill-opacity="1.000000" fill-rule="nonzero"/>
</svg>
